<?xml version="1.0" encoding="UTF-8"?>
	<svg width="1000" height="196" viewBox="0 0 1000 196" xmlns="http://www.w3.org/2000/svg" role="img">
	<rect x="0" y="0" width="1000" height="196" fill="#0b1220"/>
	<text x="180" y="28" fill="#e5e7eb" font-size="18" font-weight="600">User State Durations (minutes)</text>
	
		<g transform="translate(180, 20)">
		<rect x="0" y="-12" width="12" height="12" fill="#60a5fa" rx="2"/><text x="18" y="-2" fill="#cbd5e1" font-size="12">Menu (min)</text>
		<rect x="110" y="-12" width="12" height="12" fill="#f59e0b" rx="2"/><text x="128" y="-2" fill="#cbd5e1" font-size="12">Lobby (min)</text>
		<rect x="215" y="-12" width="12" height="12" fill="#34d399" rx="2"/><text x="233" y="-2" fill="#cbd5e1" font-size="12">Game (min)</text>
		</g>
	
	
		<line x1="180" y1="42" x2="180" y2="156" stroke="#334155" stroke-width="1" />
		<text x="180" y="178" fill="#cbd5e1" font-size="12" text-anchor="middle">0</text>
		

		<line x1="180" y1="42" x2="180" y2="156" stroke="#334155" stroke-width="1" />
		<text x="180" y="178" fill="#cbd5e1" font-size="12" text-anchor="middle">0</text>
		

		<line x1="787.6923076923076" y1="42" x2="787.6923076923076" y2="156" stroke="#334155" stroke-width="1" />
		<text x="787.6923076923076" y="178" fill="#cbd5e1" font-size="12" text-anchor="middle">1</text>
		

		<line x1="787.6923076923076" y1="42" x2="787.6923076923076" y2="156" stroke="#334155" stroke-width="1" />
		<text x="787.6923076923076" y="178" fill="#cbd5e1" font-size="12" text-anchor="middle">1</text>
		

		<line x1="787.6923076923076" y1="42" x2="787.6923076923076" y2="156" stroke="#334155" stroke-width="1" />
		<text x="787.6923076923076" y="178" fill="#cbd5e1" font-size="12" text-anchor="middle">1</text>
		

		<line x1="787.6923076923076" y1="42" x2="787.6923076923076" y2="156" stroke="#334155" stroke-width="1" />
		<text x="787.6923076923076" y="178" fill="#cbd5e1" font-size="12" text-anchor="middle">1</text>
		
	<text x="170" y="68.72" fill="#e5e7eb" font-size="14" text-anchor="end">Guest</text>
		<rect x="180" y="50" width="790"  height="26" fill="#60a5fa"  rx="5" ry="5"/>
		<rect x="970" y="50" width="0" height="26" fill="#f59e0b" rx="5" ry="5"/>
		<rect x="970" y="50" width="0"  height="26" fill="#34d399"  rx="5" ry="5"/>
		<text x="575" y="68.72" fill="#0b1220" font-size="12" text-anchor="middle">1.3</text>
		<text x="978" y="68.72" fill="#e5e7eb" font-size="13">1.3 min</text>
<text x="170" y="108.72" fill="#e5e7eb" font-size="14" text-anchor="end">AI</text>
		<rect x="180" y="90" width="243.0769230769231"  height="26" fill="#60a5fa"  rx="5" ry="5"/>
		<rect x="423.0769230769231" y="90" width="0" height="26" fill="#f59e0b" rx="5" ry="5"/>
		<rect x="423.0769230769231" y="90" width="546.9230769230769"  height="26" fill="#34d399"  rx="5" ry="5"/>
		<text x="301.53846153846155" y="108.72" fill="#0b1220" font-size="12" text-anchor="middle">0.4</text><text x="696.5384615384615" y="108.72" fill="#0b1220" font-size="12" text-anchor="middle">0.9</text>
		<text x="978" y="108.72" fill="#e5e7eb" font-size="13">1.3 min</text>
<text x="170" y="148.72" fill="#e5e7eb" font-size="14" text-anchor="end">Marty</text>
		<rect x="180" y="130" width="182.3076923076923"  height="26" fill="#60a5fa"  rx="5" ry="5"/>
		<rect x="362.30769230769226" y="130" width="0" height="26" fill="#f59e0b" rx="5" ry="5"/>
		<rect x="362.30769230769226" y="130" width="546.9230769230769"  height="26" fill="#34d399"  rx="5" ry="5"/>
		<text x="271.15384615384613" y="148.72" fill="#0b1220" font-size="12" text-anchor="middle">0.3</text><text x="635.7692307692307" y="148.72" fill="#0b1220" font-size="12" text-anchor="middle">0.9</text>
		<text x="917.2307692307692" y="148.72" fill="#e5e7eb" font-size="13">1.2 min</text>
	</svg>